<svg width="147" height="91" fill="none" xmlns="http://www.w3.org/2000/svg" viewBox="0 0 235 147"><path d="M21.07 131.326c-5.382-1.187-9.881-5.448-11.858-11.2l-.85-2.496V77.152c0-31.926.09-40.782.394-41.939 1.186-4.443 4.44-8.674 8.24-10.683 3.07-1.613 5.168-2.008 10.915-2.008h4.925v-3.409c.03-4.9.821-6.513 3.679-7.274 1.642-.426 3.192-.183 4.56.73 1.734 1.127 2.098 2.283 2.098 6.392v3.56H86.651v-3.743c0-4.413.365-5.417 2.432-6.513 2.737-1.46 6.05-.395 7.175 2.252.274.64.426 2.192.426 4.505v3.5h4.652c7.114 0 10.003.974 13.773 4.717 2.311 2.283 3.922 5.144 4.712 8.37.639 2.465.639 80.317 0 82.782-.668 2.77-2.341 5.935-4.195 7.913-2.098 2.283-3.74 3.439-6.385 4.505l-2.068.821-42.109.061c-34.6.031-42.444-.03-43.994-.365Zm86.347-8.004c2.25-1.126 4.135-3.135 4.834-5.174.517-1.461.76-65.952.274-67.626-.183-.609-.73-1.492-1.247-1.978l-.943-.914-45.605-.09c-50.136-.062-46.913-.184-48.22 1.703-.518.792-.548 2.496-.548 34.3 0 32.109.03 33.54.578 34.97 1.125 2.922 4.043 5.265 6.962 5.631.882.091 19.641.182 41.714.182h40.133l2.068-1.004ZM40.984 37.344c1.642-1.066 2.493-2.922 2.493-5.327 0-1.034-.121-1.887-.273-1.887-.122 0-.183.305-.122.7.183.974-1.125 3.287-2.31 4.079-.791.547-1.46.7-2.95.7-1.733 0-2.037-.092-3.04-.974-1.247-1.126-1.946-2.465-1.976-3.957 0-.974 0-.974-.335-.243-.486 1.248-.09 4.139.76 5.448 1.642 2.495 5.2 3.165 7.753 1.46Zm52.416.7c2.676-.761 4.713-5.144 3.588-7.761-.213-.457-.273-.274-.273.79-.061 2.74-2.098 4.566-5.078 4.566-2.919 0-4.986-1.978-4.986-4.778 0-.822-.091-1.065-.335-.822-.516.517-.364 3.896.213 5.144.547 1.156 2.129 2.587 3.223 2.921 1.064.305 2.402.274 3.648-.06Z" fill="orange" /><path d="M64.486 113.096c-3.1-3.074-5.928-5.722-6.263-5.905-.334-.152-1.642-.395-2.888-.487a58.694 58.694 0 0 1-4.56-.669c-8.392-1.705-16.236-9.526-18.912-18.84-.942-3.225-1.003-10.164-.121-13.238 2.614-9.253 10.154-16.557 18.972-18.413 2.918-.64 24.87-.64 28.093-.03 8.3 1.582 15.384 7.912 18.15 16.16 2.707 8.156 1.49 17.287-3.344 24.5-3.77 5.63-8.969 9.07-15.475 10.226-1.733.304-3.04.7-3.254.974-.273.335-.395 1.856-.395 5.022v4.534l-.881.883c-.7.7-1.156.883-2.19.883-1.277 0-1.398-.092-6.932-5.6Zm.7-18.961c0-2.496-.122-2.983-1.004-4.779-2.31-4.747-7.905-7.304-12.83-5.873-5.169 1.521-8.24 5.508-8.695 11.23l-.183 2.374 11.371-.06 11.371-.092-.03-2.8Zm21.708.882c.304-6.665-5.32-12.356-11.705-11.839-2.007.153-4.743 1.248-5.686 2.283-.456.548-.426.67.578 2.374 1.429 2.374 1.976 4.322 1.976 7.03v2.222l7.388-.06 7.358-.092.091-1.918ZM57.311 79.465c2.676-1.278 4.196-3.652 4.196-6.574 0-4.352-2.858-7.274-7.084-7.274-2.129 0-3.466.487-4.956 1.918-3.527 3.256-2.676 9.556 1.581 11.809 1.703.882 4.5.943 6.263.121Zm21.587-.304c3.01-1.704 4.348-5.022 3.375-8.309-.973-3.348-3.466-5.235-6.872-5.235-5.563 0-8.817 5.6-6.202 10.683.73 1.4 1.216 1.978 2.554 2.77 1.398.821 1.915.974 3.648.974 1.612 0 2.25-.153 3.497-.883ZM147.34 68.5h-9.972v-2.232l3.06-.9V45.964l-3.06-.936v-2.232h9.972v2.232l-3.024.936v19.404l3.024.9V68.5Zm14.238-19.764c2.256 0 3.984.564 5.184 1.692 1.2 1.128 1.8 2.94 1.8 5.436V68.5h-3.78V56.404c0-1.512-.324-2.64-.972-3.384-.624-.768-1.632-1.152-3.024-1.152-1.968 0-3.336.588-4.104 1.764-.744 1.176-1.116 2.868-1.116 5.076V68.5h-3.816V49.096h3.024l.54 2.592h.216a5.802 5.802 0 0 1 1.584-1.656 6.938 6.938 0 0 1 2.088-.972 8.734 8.734 0 0 1 2.376-.324ZM178.782 68.5l-7.344-19.404h4.032l4.032 11.34c.168.48.336 1.02.504 1.62.192.6.36 1.176.504 1.728.144.552.24 1.032.288 1.44h.143c.073-.408.181-.888.325-1.44.168-.576.348-1.152.54-1.728.192-.6.36-1.14.504-1.62l4.032-11.34h4.032l-7.38 19.404h-4.212Zm18.409-19.404V68.5h-3.816V49.096h3.816Zm-1.872-7.38c.576 0 1.08.168 1.512.504.432.336.648.9.648 1.692 0 .768-.216 1.332-.648 1.692a2.392 2.392 0 0 1-1.512.504c-.624 0-1.152-.168-1.584-.504-.408-.36-.612-.924-.612-1.692 0-.792.204-1.356.612-1.692.432-.336.96-.504 1.584-.504Zm14.848 24.048c.504 0 1.02-.048 1.548-.144.528-.096.984-.204 1.368-.324v2.88c-.408.192-.96.348-1.656.468-.696.144-1.392.216-2.088.216-1.056 0-2.028-.18-2.916-.54-.864-.36-1.56-.984-2.088-1.872-.528-.888-.792-2.124-.792-3.708V52.012h-2.7v-1.728l2.844-1.44 1.332-4.104h2.34v4.356h5.544v2.916h-5.544v10.656c0 1.056.252 1.836.756 2.34.528.504 1.212.756 2.052.756Zm14.43-17.028c1.704 0 3.168.36 4.392 1.08 1.224.696 2.16 1.704 2.808 3.024.672 1.32 1.008 2.88 1.008 4.68v2.088h-13.032c.048 1.992.564 3.516 1.548 4.572 1.008 1.056 2.412 1.584 4.212 1.584 1.248 0 2.352-.108 3.312-.324a18.12 18.12 0 0 0 3.024-1.044v3.168c-.96.432-1.944.756-2.952.972-.984.216-2.16.324-3.528.324-1.872 0-3.528-.372-4.968-1.116-1.44-.744-2.568-1.848-3.384-3.312-.792-1.488-1.188-3.312-1.188-5.472 0-2.184.36-4.032 1.08-5.544.744-1.512 1.764-2.664 3.06-3.456 1.32-.816 2.856-1.224 4.608-1.224Zm0 2.952c-1.368 0-2.472.444-3.312 1.332-.816.888-1.296 2.148-1.44 3.78h9.144c0-1.008-.156-1.896-.468-2.664-.312-.768-.792-1.368-1.44-1.8-.648-.432-1.476-.648-2.484-.648ZM150.616 105.5l-7.776-21.852h-.144c.024.48.06 1.128.108 1.944.048.816.084 1.692.108 2.628.024.936.036 1.86.036 2.772V105.5h-3.528V79.796h5.544l7.38 20.628h.144l7.596-20.628h5.544V105.5h-3.78V90.776c0-.84.012-1.704.036-2.592.048-.912.084-1.764.108-2.556.048-.792.084-1.44.108-1.944h-.144l-7.992 21.816h-3.348Zm28.943-19.764c2.448 0 4.272.54 5.472 1.62 1.2 1.056 1.8 2.724 1.8 5.004v13.14h-2.7l-.756-2.7h-.144a9.796 9.796 0 0 1-1.728 1.728 5.689 5.689 0 0 1-2.016 1.008c-.744.216-1.656.324-2.736.324-1.152 0-2.196-.204-3.132-.612a4.979 4.979 0 0 1-2.16-1.944c-.528-.888-.792-1.992-.792-3.312 0-1.968.744-3.468 2.232-4.5 1.512-1.032 3.804-1.596 6.876-1.692l3.312-.108v-1.08c0-1.44-.324-2.448-.972-3.024-.648-.576-1.56-.864-2.736-.864a9.508 9.508 0 0 0-2.88.432 17.71 17.71 0 0 0-2.592 1.044l-1.224-2.772c.912-.48 1.956-.876 3.132-1.188a13.82 13.82 0 0 1 3.744-.504Zm.9 10.512c-2.208.096-3.744.468-4.608 1.116-.84.624-1.26 1.512-1.26 2.664 0 1.008.3 1.74.9 2.196.624.456 1.404.684 2.34.684 1.512 0 2.76-.42 3.744-1.26.984-.84 1.476-2.1 1.476-3.78v-1.692l-2.592.072Zm19.232 6.516c.504 0 1.02-.048 1.548-.144.528-.096.984-.204 1.368-.324v2.88c-.408.192-.96.348-1.656.468-.696.144-1.392.216-2.088.216-1.056 0-2.028-.18-2.916-.54-.864-.36-1.56-.984-2.088-1.872-.528-.888-.792-2.124-.792-3.708V89.012h-2.7v-1.728l2.844-1.44 1.332-4.104h2.34v4.356h5.544v2.916h-5.544v10.656c0 1.056.252 1.836.756 2.34.528.504 1.212.756 2.052.756Zm14.429-17.028c1.704 0 3.168.36 4.392 1.08 1.224.696 2.16 1.704 2.808 3.024.672 1.32 1.008 2.88 1.008 4.68v2.088h-13.032c.048 1.992.564 3.516 1.548 4.572 1.008 1.056 2.412 1.584 4.212 1.584 1.248 0 2.352-.108 3.312-.324a18.12 18.12 0 0 0 3.024-1.044v3.168c-.96.432-1.944.756-2.952.972-.984.216-2.16.324-3.528.324-1.872 0-3.528-.372-4.968-1.116-1.44-.744-2.568-1.848-3.384-3.312-.792-1.488-1.188-3.312-1.188-5.472 0-2.184.36-4.032 1.08-5.544.744-1.512 1.764-2.664 3.06-3.456 1.32-.816 2.856-1.224 4.608-1.224Zm0 2.952c-1.368 0-2.472.444-3.312 1.332-.816.888-1.296 2.148-1.44 3.78h9.144c0-1.008-.156-1.896-.468-2.664-.312-.768-.792-1.368-1.44-1.8-.648-.432-1.476-.648-2.484-.648Z" fill="#1074D0" /></svg>